<?xml version="1.0" encoding="utf-8"?>
<!-- Generator: Adobe Illustrator 18.0.0, SVG Export Plug-In . SVG Version: 6.00 Build 0)  -->
<!DOCTYPE svg PUBLIC "-//W3C//DTD SVG 1.1//EN" "http://www.w3.org/Graphics/SVG/1.1/DTD/svg11.dtd">
<svg version="1.1" id="Layer_1" xmlns="http://www.w3.org/2000/svg" xmlns:xlink="http://www.w3.org/1999/xlink" x="0px" y="0px"
	 viewBox="0 0 411 412.1" enable-background="new 0 0 411 412.1" xml:space="preserve">
<g>
	<path fill="none" d="M76.5,199c23.8,0,35.2-9.4,35.4-9.5l1.2-1.1l0.4,1.6c0.5,2.2,0.8,3.6,1,4.4c6.3-2.2,14.1-9.5,14.2-9.6l0.7-0.6
		l0.7,0.6c15.1,13.2,34.4,14,37.7,14.1c0.3-1.8,0.8-3.6,1.4-5.4L60.9,148.7c-5.5,13.8-8.9,28.3-10.3,43.1l2.6,4.5
		C61.3,198.1,69.1,199,76.5,199z"/>
	<path fill="none" d="M173.8,184.2c-2.6-2.5-16.8-15.4-36.6-16.7l-0.9-0.1l0-0.9c0-0.1-0.4-10.8-3.2-16.8c-0.7,0.5-1.9,1.2-3.8,2.4
		l-1.4,0.9l-0.1-1.6c0-0.2-2.5-24.4-36.6-46.3l-4.9,1.3c-9.6,11.4-17.4,24.1-23.3,37.7L171,188.9
		C171.8,187.3,172.7,185.7,173.8,184.2z"/>
	<path fill="none" d="M167.7,213.1c-3.4,0-22.7,0.9-37.7,14.1l-0.7,0.6l-0.7-0.6c-0.1-0.1-7.9-7.4-14.2-9.6c-0.2,0.8-0.5,2.2-1,4.4
		l-0.4,1.6l-1.2-1.1c-0.1-0.1-11.6-9.5-35.4-9.5c-7.3,0-15.1,0.9-23.2,2.7l-2.6,4.5c1.3,14.8,4.8,29.3,10.3,43.1l108.2-44.8
		C168.5,216.6,168,214.8,167.7,213.1z"/>
	<path fill="none" d="M127.6,260.6l0.1-1.6l1.4,0.9c1.9,1.2,3.1,1.9,3.8,2.4c2.9-6,3.2-16.7,3.2-16.8l0-0.9l0.9-0.1
		c19.9-1.3,34-14.2,36.6-16.7c-1-1.5-1.9-3-2.7-4.7L62.8,267.8c5.9,13.6,13.7,26.3,23.3,37.7l4.9,1.3
		C125.1,285,127.6,260.8,127.6,260.6z"/>
	<path fill="none" d="M283.4,151.4l-0.1,1.6l-1.4-0.9c-1.9-1.2-3.1-1.9-3.8-2.4c-2.9,6-3.2,16.7-3.2,16.8l0,0.9l-0.9,0.1
		c-19.9,1.3-34,14.2-36.6,16.7c1,1.5,2,3.1,2.8,4.8l108.2-44.8c-5.9-13.6-13.8-26.3-23.3-37.8l-4.9-1.3
		C285.8,127,283.4,151.1,283.4,151.4z"/>
	<path fill="none" d="M183.8,237.7c-2.5,2.6-15.4,16.8-16.7,36.6l-0.1,0.9l-0.9,0c-0.1,0-10.8,0.4-16.8,3.2c0.5,0.7,1.2,1.9,2.4,3.8
		l0.9,1.4l-1.6,0.1c-0.2,0-24.4,2.5-46.3,36.6l1.3,4.9c11.5,9.6,24.2,17.5,37.9,23.4l44.8-108.2
		C186.9,239.7,185.3,238.8,183.8,237.7z"/>
	<path fill="none" d="M227.2,174.2c2.5-2.6,15.4-16.8,16.7-36.6l0.1-0.9l0.9,0c0.1,0,10.8-0.4,16.8-3.2c-0.5-0.7-1.2-1.9-2.4-3.8
		l-0.9-1.4l1.6-0.1c0.2,0,24.4-2.5,46.3-36.6l-1.3-4.9c-11.4-9.5-24.1-17.4-37.6-23.3l-44.8,108.2
		C224.2,172.3,225.8,173.2,227.2,174.2z"/>
	<path fill="none" d="M198.4,168.1c-0.1-3.7-1-22.8-14.1-37.7l-0.6-0.7l0.6-0.7c0.1-0.1,7.4-7.9,9.6-14.2c-1-0.2-2.4-0.5-4.4-1
		l-1.6-0.4l1.1-1.2c0.2-0.2,15.5-19,6.9-58.6l-4.5-2.6c-14.8,1.3-29.2,4.8-43,10.2l44.8,108.2C194.9,168.9,196.7,168.5,198.4,168.1z
		"/>
	<path fill="none" d="M150.9,128.1l1.6,0.1l-0.9,1.4c-1.2,1.9-1.9,3.1-2.4,3.8c6,2.9,16.7,3.2,16.8,3.2l0.9,0l0.1,0.9
		c1.3,19.9,14.2,34.1,16.7,36.6c1.5-1,3.1-2,4.8-2.8L143.8,63.2c-13.6,5.9-26.4,13.8-37.9,23.4l-1.3,4.9
		C126.6,125.7,150.7,128,150.9,128.1z"/>
	<path fill="none" d="M223,113.5l-1.6,0.4c-2,0.5-3.5,0.8-4.4,1c2.2,6.3,9.5,14.1,9.6,14.2l0.6,0.7l-0.6,0.7
		c-13.1,14.9-14,34.1-14.1,37.7c1.8,0.3,3.6,0.8,5.4,1.4l44.8-108.2c-13.8-5.5-28.3-9-43.2-10.3l-4.5,2.6
		c-8.6,39.6,6.7,58.4,6.9,58.6L223,113.5z"/>
	<path fill="none" d="M241.9,193.6c0.6,1.7,1.1,3.5,1.4,5.2c3.4,0,22.7-0.9,37.7-14.1l0.7-0.6l0.7,0.6c0.1,0.1,7.9,7.4,14.2,9.6
		c0.2-0.8,0.5-2.2,1-4.4l0.4-1.6l1.2,1.1c0.1,0.1,11.6,9.5,35.4,9.5c7.3,0,15.1-0.9,23.2-2.7l2.6-4.5c-1.3-14.8-4.8-29.3-10.2-43
		L241.9,193.6z"/>
	<path fill="none" d="M188,298.4l1.6-0.4c2-0.5,3.5-0.8,4.4-1c-2.2-6.3-9.5-14.1-9.6-14.2l-0.6-0.7l0.6-0.7
		c13.1-14.9,14-34.1,14.1-37.7c-1.7-0.3-3.5-0.8-5.2-1.4l-44.8,108.2c13.7,5.4,28.2,8.9,43,10.2l4.5-2.6c8.7-39.7-6.7-58.4-6.9-58.6
		L188,298.4z"/>
	<path fill="none" d="M237.2,227.7c2.6,2.5,16.8,15.4,36.6,16.7l0.9,0.1l0,0.9c0,0.1,0.4,10.8,3.2,16.8c0.7-0.5,1.9-1.2,3.8-2.4
		l1.4-0.9l0.1,1.6c0,0.2,2.5,24.4,36.6,46.3l4.9-1.3c9.6-11.5,17.4-24.2,23.3-37.8L240,222.9C239.2,224.6,238.3,226.2,237.2,227.7z"
		/>
	<path fill="none" d="M334.5,212.9c-23.8,0-35.2,9.4-35.4,9.5l-1.2,1.1l-0.4-1.6c-0.5-2.2-0.8-3.6-1-4.4c-6.3,2.2-14.1,9.5-14.2,9.6
		l-0.7,0.6l-0.7-0.6c-15.1-13.2-34.4-14-37.7-14.1c-0.3,1.8-0.8,3.5-1.4,5.2l108.2,44.8c5.5-13.8,8.9-28.2,10.2-43l-2.6-4.5
		C349.7,213.8,341.9,212.9,334.5,212.9z"/>
	<path fill="none" d="M260.1,283.9l-1.6-0.1l0.9-1.4c1.2-1.9,1.9-3.1,2.4-3.8c-6-2.9-16.7-3.2-16.8-3.2l-0.9,0l-0.1-0.9
		c-1.3-19.9-14.2-34-16.7-36.6c-1.5,1-3,1.9-4.6,2.7l44.8,108.2c13.6-5.9,26.2-13.7,37.6-23.3l1.3-4.9
		C284.5,286.3,260.3,283.9,260.1,283.9z"/>
	<path fill="none" d="M222.4,197.5c-0.7-1.5-1.7-2.8-2.7-4l-0.2-0.2c-0.2-0.2-0.4-0.5-0.6-0.7c-1.4-1.4-3-2.5-4.7-3.4
		c-0.9-0.4-1.8-0.8-2.6-1.1c-1.6-0.5-3.2-0.8-4.8-0.9l-0.3,0c-0.3,0-0.6,0-0.9,0c-1.9,0-3.9,0.3-5.8,0.9c-1,0.3-1.8,0.7-2.6,1.1
		c-1.5,0.7-2.8,1.7-4.1,2.7l-0.2,0.2c-0.2,0.2-0.5,0.4-0.7,0.6c-1.4,1.4-2.6,3-3.5,4.8c-0.4,0.9-0.8,1.7-1.1,2.6c-0.6,1.9-1,3.9-1,6
		c0,0.3,0,0.6,0,0.9l0,0.3c0.1,1.6,0.4,3.2,0.9,4.8c0.3,0.9,0.7,1.8,1.1,2.6c0.9,1.8,2.1,3.4,3.5,4.8c0.2,0.2,0.5,0.4,0.7,0.6
		l0.2,0.2c1.2,1.1,2.6,2,4.1,2.7c0.8,0.4,1.7,0.8,2.6,1.1c1.9,0.6,3.8,0.9,5.8,0.9c0.3,0,0.6,0,0.9,0l0.3,0c1.6-0.1,3.2-0.4,4.8-0.9
		c0.9-0.3,1.8-0.7,2.6-1.1c1.8-0.9,3.4-2.1,4.7-3.4c0.2-0.2,0.4-0.5,0.6-0.7l0.2-0.2c1.1-1.2,2-2.6,2.7-4c0.4-0.9,0.8-1.8,1.1-2.6
		c0.5-1.5,0.8-3.1,0.9-4.7l0-0.3c0-0.3,0-0.6,0-0.9c0-2-0.3-3.9-0.9-5.8C223.2,199.2,222.8,198.3,222.4,197.5z"/>
	<path fill="none" d="M212.6,243.8c0.1,3.7,1,22.8,14.1,37.7l0.6,0.7l-0.6,0.7c-0.1,0.1-7.4,7.9-9.6,14.2c1,0.2,2.4,0.5,4.4,1
		l1.6,0.4l-1.1,1.2c-0.2,0.2-15.5,19-6.9,58.6l4.5,2.6c14.9-1.3,29.4-4.8,43.2-10.3L218,242.4C216.2,243,214.4,243.5,212.6,243.8z"
		/>
	<path d="M382,132.9l-12.9-5.3c2.8,5.9,5.4,12,7.6,18.2L382,132.9z"/>
	<path d="M205.5,176.5c-16.3,0-29.5,13.2-29.5,29.5s13.2,29.5,29.5,29.5c16.3,0,29.5-13.2,29.5-29.5S221.8,176.5,205.5,176.5z
		 M224.4,206.9l0,0.3c-0.1,1.6-0.4,3.2-0.9,4.7c-0.3,0.9-0.6,1.8-1.1,2.6c-0.7,1.5-1.6,2.8-2.7,4l-0.2,0.2c-0.2,0.2-0.4,0.5-0.6,0.7
		c-1.4,1.4-3,2.5-4.7,3.4c-0.9,0.4-1.8,0.8-2.6,1.1c-1.6,0.5-3.2,0.8-4.8,0.9l-0.3,0c-0.3,0-0.6,0-0.9,0c-1.9,0-3.9-0.3-5.8-0.9
		c-1-0.3-1.8-0.7-2.6-1.1c-1.5-0.7-2.8-1.7-4.1-2.7l-0.2-0.2c-0.2-0.2-0.5-0.4-0.7-0.6c-1.4-1.4-2.5-3-3.5-4.8
		c-0.4-0.9-0.8-1.8-1.1-2.6c-0.5-1.6-0.8-3.2-0.9-4.8l0-0.3c0-0.3,0-0.6,0-0.9c0-2,0.3-4,1-6c0.3-0.9,0.7-1.8,1.1-2.6
		c0.9-1.8,2.1-3.4,3.5-4.8c0.2-0.2,0.5-0.4,0.7-0.6l0.2-0.2c1.2-1.1,2.6-2,4.1-2.7c0.8-0.4,1.7-0.8,2.6-1.1c1.9-0.6,3.8-0.9,5.8-0.9
		c0.3,0,0.6,0,0.9,0l0.3,0c1.6,0.1,3.2,0.4,4.8,0.9c0.9,0.3,1.8,0.7,2.6,1.1c1.8,0.9,3.4,2.1,4.7,3.4c0.2,0.2,0.4,0.5,0.6,0.7
		l0.2,0.2c1.1,1.2,2,2.6,2.7,4c0.4,0.8,0.8,1.7,1.1,2.6c0.6,1.9,0.9,3.9,0.9,5.8C224.4,206.3,224.4,206.6,224.4,206.9z"/>
	<path d="M403.9,206l-17.8-17.8c-1.4-14.6-4.6-28.8-9.4-42.5l-0.9,2.2c-1.1-3.6-2.4-7.3-3.8-10.9c-1.5-3.6-3.1-7.1-5-10.4l2.1,0.9
		c-6.2-13-14.1-25.3-23.4-36.6V65.7h-25.2c-11.3-9.3-23.6-17.1-36.7-23.4l-5.3-12.8l-12.8,5.3c-13.3-4.7-27.2-7.9-41.4-9.3l-1.2-0.1
		L205.5,7.6l-17.7,17.7l-1.2,0.1c-14.2,1.5-28.1,4.6-41.4,9.3l-12.8-5.3l-5.3,12.8c-13.1,6.3-25.4,14.1-36.7,23.4H65.2V91
		c-9.3,11.3-17.1,23.6-23.4,36.6L29,132.9l5.3,12.9c-4.8,13.7-8,27.9-9.4,42.5L7.1,206l17.8,17.8c1.4,14.7,4.7,28.9,9.4,42.4
		L29,279.2l13,5.4c6.3,13.1,14.2,25.3,23.3,36.5v25.4h25.4c11.1,9.1,23.3,17,36.4,23.3l5.4,13l13-5.4c13.4,4.7,27.6,7.9,42.3,9.4
		l17.9,17.9l17.9-17.9c14.7-1.4,28.8-4.6,42.3-9.4l13,5.4l5.4-13c13.1-6.3,25.3-14.1,36.4-23.2h25.4V321c9.1-11.1,17-23.4,23.3-36.4
		l13-5.4l-5.4-12.9c4.8-13.5,8-27.7,9.4-42.4L403.9,206z M324.9,106.4c9.6,11.5,17.4,24.2,23.3,37.8L240,189
		c-0.8-1.7-1.8-3.3-2.8-4.8c2.6-2.5,16.8-15.4,36.6-16.7l0.9-0.1l0-0.9c0-0.1,0.4-10.8,3.2-16.8c0.7,0.5,1.9,1.2,3.8,2.4l1.4,0.9
		l0.1-1.6c0-0.2,2.4-24.3,36.6-46.3L324.9,106.4z M267.4,63.3c13.6,5.9,26.2,13.7,37.6,23.3l1.3,4.9c-21.9,34.1-46,36.5-46.3,36.6
		l-1.6,0.1l0.9,1.4c1.2,1.9,1.9,3.1,2.4,3.8c-6,2.9-16.7,3.2-16.8,3.2l-0.9,0l-0.1,0.9c-1.3,19.9-14.2,34-16.7,36.6
		c-1.5-1-3-1.9-4.6-2.7L267.4,63.3z M215.1,53.7l4.5-2.6c14.9,1.3,29.4,4.8,43.2,10.3L218,169.6c-1.8-0.6-3.6-1.1-5.4-1.4
		c0.1-3.7,1-22.8,14.1-37.7l0.6-0.7l-0.6-0.7c-0.1-0.1-7.4-7.9-9.6-14.2c1-0.2,2.4-0.5,4.4-1l1.6-0.4l-1.1-1.2
		C221.8,112.1,206.5,93.3,215.1,53.7z M191.4,51.1l4.5,2.6c8.6,39.6-6.7,58.4-6.9,58.6l-1.1,1.2l1.6,0.4c2,0.5,3.5,0.8,4.4,1
		c-2.2,6.3-9.5,14.1-9.6,14.2l-0.6,0.7l0.6,0.7c13.1,14.9,14,34.1,14.1,37.7c-1.7,0.3-3.5,0.8-5.2,1.4L148.4,61.3
		C162.2,55.9,176.6,52.5,191.4,51.1z M105.9,86.6c11.5-9.6,24.2-17.5,37.9-23.4l44.8,108.2c-1.7,0.8-3.3,1.8-4.8,2.8
		c-2.5-2.6-15.4-16.8-16.7-36.6l-0.1-0.9l-0.9,0c-0.1,0-10.8-0.4-16.8-3.2c0.5-0.7,1.2-1.9,2.4-3.8l0.9-1.4l-1.6-0.1
		c-0.2,0-24.3-2.4-46.3-36.6L105.9,86.6z M86.1,106.4l4.9-1.3c34.1,21.9,36.5,46,36.6,46.3l0.1,1.6l1.4-0.9c1.9-1.2,3.1-1.9,3.8-2.4
		c2.9,6,3.2,16.7,3.2,16.8l0,0.9l0.9,0.1c19.9,1.3,34.1,14.2,36.6,16.7c-1,1.5-1.9,3-2.7,4.7L62.8,144.1
		C68.8,130.5,76.6,117.9,86.1,106.4z M60.9,148.7l108.2,44.8c-0.6,1.8-1.1,3.6-1.4,5.4c-3.4,0-22.7-0.9-37.7-14.1l-0.7-0.6l-0.7,0.6
		c-0.1,0.1-7.9,7.4-14.2,9.6c-0.2-0.8-0.5-2.2-1-4.4l-0.4-1.6l-1.2,1.1c-0.1,0.1-11.6,9.5-35.4,9.5c-7.3,0-15.1-0.9-23.2-2.7
		l-2.6-4.5C52,177,55.4,162.5,60.9,148.7z M50.6,220.1l2.6-4.5c8.1-1.8,15.9-2.7,23.2-2.7c23.8,0,35.2,9.4,35.4,9.5l1.2,1.1l0.4-1.6
		c0.5-2.2,0.8-3.6,1-4.4c6.3,2.2,14.1,9.5,14.2,9.6l0.7,0.6l0.7-0.6c15.1-13.2,34.4-14,37.7-14.1c0.3,1.8,0.8,3.6,1.4,5.4
		L60.9,263.2C55.4,249.4,52,234.9,50.6,220.1z M86.1,305.5c-9.6-11.4-17.4-24.1-23.3-37.7L171,223c0.8,1.6,1.7,3.2,2.7,4.7
		c-2.6,2.5-16.8,15.4-36.6,16.7l-0.9,0.1l0,0.9c0,0.1-0.4,10.8-3.2,16.8c-0.7-0.5-1.9-1.2-3.8-2.4l-1.4-0.9l-0.1,1.6
		c0,0.2-2.5,24.4-36.6,46.3L86.1,305.5z M143.8,348.7c-13.6-5.9-26.4-13.8-37.9-23.4l-1.3-4.9c21.9-34.1,46-36.5,46.3-36.6l1.6-0.1
		l-0.9-1.4c-1.2-1.9-1.9-3.1-2.4-3.8c6-2.9,16.7-3.2,16.8-3.2l0.9,0l0.1-0.9c1.3-19.9,14.2-34,16.7-36.6c1.5,1,3.1,2,4.8,2.8
		L143.8,348.7z M195.9,358.2l-4.5,2.6c-14.8-1.3-29.2-4.8-43-10.2l44.8-108.2c1.7,0.6,3.4,1,5.2,1.4c-0.1,3.7-1,22.8-14.1,37.7
		l-0.6,0.7l0.6,0.7c0.1,0.1,7.4,7.9,9.6,14.2c-1,0.2-2.4,0.5-4.4,1l-1.6,0.4l1.1,1.2C189.2,299.8,204.5,318.6,195.9,358.2z M172,206
		c0-18.5,15-33.5,33.5-33.5c18.5,0,33.5,15,33.5,33.5s-15,33.5-33.5,33.5C187,239.5,172,224.4,172,206z M219.6,360.8l-4.5-2.6
		c-8.6-39.6,6.7-58.4,6.9-58.6l1.1-1.2l-1.6-0.4c-2-0.5-3.5-0.8-4.4-1c2.2-6.3,9.5-14.1,9.6-14.2l0.6-0.7l-0.6-0.7
		c-13.1-14.9-14-34.1-14.1-37.7c1.8-0.3,3.6-0.8,5.4-1.4l44.8,108.2C249,356,234.5,359.5,219.6,360.8z M305.1,325.3
		c-11.4,9.5-24.1,17.4-37.6,23.3l-44.8-108.2c1.6-0.8,3.2-1.7,4.6-2.7c2.5,2.6,15.4,16.8,16.7,36.6l0.1,0.9l0.9,0
		c0.1,0,10.8,0.4,16.8,3.2c-0.5,0.7-1.2,1.9-2.4,3.8l-0.9,1.4l1.6,0.1c0.2,0,24.4,2.5,46.3,36.6L305.1,325.3z M324.9,305.5l-4.9,1.3
		c-34.1-21.9-36.5-46-36.6-46.3l-0.1-1.6l-1.4,0.9c-1.9,1.2-3.1,1.9-3.8,2.4c-2.9-6-3.2-16.7-3.2-16.8l0-0.9l-0.9-0.1
		c-19.9-1.3-34-14.2-36.6-16.7c1-1.5,2-3.1,2.8-4.8l108.2,44.8C342.3,281.3,334.4,294.1,324.9,305.5z M350.1,263.1l-108.2-44.8
		c0.6-1.7,1.1-3.5,1.4-5.2c3.4,0,22.7,0.9,37.7,14.1l0.7,0.6l0.7-0.6c0.1-0.1,7.9-7.4,14.2-9.6c0.2,0.8,0.5,2.2,1,4.4l0.4,1.6
		l1.2-1.1c0.1-0.1,11.6-9.5,35.4-9.5c7.3,0,15.1,0.9,23.2,2.7l2.6,4.5C359,234.9,355.6,249.3,350.1,263.1z M357.8,196.4
		c-8.1,1.8-15.9,2.7-23.2,2.7c-23.8,0-35.2-9.4-35.4-9.5l-1.2-1.1l-0.4,1.6c-0.5,2.2-0.8,3.6-1,4.4c-6.3-2.2-14.1-9.5-14.2-9.6
		l-0.7-0.6l-0.7,0.6c-15.1,13.2-34.4,14-37.7,14.1c-0.3-1.8-0.8-3.5-1.4-5.2l108.2-44.8c5.5,13.8,8.9,28.2,10.2,43L357.8,196.4z"/>
	<path d="M372,137.1c1.5,3.6,2.8,7.2,3.8,10.9l0.9-2.2c-2.2-6.2-4.7-12.3-7.6-18.2l-2.1-0.9C368.8,130,370.5,133.5,372,137.1z"/>
</g>
</svg>
